<svg width="22" height="22" viewBox="0 0 22 22" fill="none" xmlns="http://www.w3.org/2000/svg">
<path fill-rule="evenodd" clip-rule="evenodd" d="M5.22148 5.03238C5.12715 5.0743 5.02873 5.19399 5.01125 5.28805C5.00352 5.32962 5.00047 5.60115 5.00445 5.89147C5.01146 6.40078 5.01364 6.42203 5.0663 6.49593C5.14541 6.60695 5.24009 6.64629 5.46141 6.66011L5.65625 6.67228V8.42851V10.1847H5.46608C5.22964 10.1847 5.11752 10.2381 5.04688 10.3842C5.00429 10.4722 5 10.529 5 11.0059C5 11.4827 5.00429 11.5395 5.04688 11.6276C5.11752 11.7736 5.22964 11.827 5.46608 11.827H5.65625V13.5832V15.3394L5.46141 15.3516C5.24009 15.3654 5.14541 15.4048 5.0663 15.5158C5.01263 15.5911 5.01172 15.6021 5.01172 16.183C5.01172 16.743 5.01423 16.7771 5.06005 16.8385C5.08663 16.8741 5.13748 16.925 5.17309 16.9516C5.23445 16.9975 5.26848 17 5.82788 17C6.40822 17 6.41923 16.9991 6.49449 16.9454C6.6054 16.8662 6.6447 16.7714 6.65851 16.5499L6.67067 16.3548H8.42518H10.1797L10.1797 16.5249C10.1798 16.7264 10.2245 16.8334 10.3414 16.9116C10.4188 16.9633 10.4371 16.9648 11 16.9648C11.5629 16.9648 11.5812 16.9633 11.6586 16.9116C11.7755 16.8334 11.8202 16.7264 11.8203 16.5249L11.8203 16.3548H13.0491H14.2779L14.3264 16.293C14.4054 16.1925 14.3872 16.093 14.2796 16.0373C14.2239 16.0084 14.0213 16.0029 13.019 16.0029H11.8247L11.8167 15.7742C11.8075 15.5146 11.7676 15.4289 11.6239 15.3607C11.5053 15.3043 10.4947 15.3043 10.3761 15.3607C10.2324 15.4289 10.1925 15.5146 10.1833 15.7742L10.1753 16.0029H8.41967H6.66406L6.6635 15.868C6.66266 15.6652 6.62987 15.5589 6.54062 15.4696C6.45137 15.3803 6.34517 15.3474 6.14258 15.3466L6.00781 15.346V13.5865V11.827H6.20356C6.42753 11.827 6.51922 11.784 6.6042 11.6392C6.64909 11.5627 6.65234 11.5198 6.65234 11.0059C6.65234 10.492 6.64909 10.449 6.6042 10.3725C6.51922 10.2277 6.42753 10.1847 6.20356 10.1847H6.00781V8.4252V6.66567L6.14258 6.66511C6.34517 6.66426 6.45137 6.63144 6.54062 6.5421C6.62987 6.45277 6.66266 6.34647 6.6635 6.14367L6.66406 6.00878H6.8293C7.11896 6.00878 7.23809 5.88465 7.10766 5.71869C7.06217 5.66079 7.04677 5.65687 6.86488 5.65687H6.67067L6.65851 5.46184C6.6447 5.24031 6.6054 5.14553 6.49449 5.06635C6.42008 5.01321 6.40252 5.01154 5.85547 5.00615C5.42337 5.00188 5.2764 5.00795 5.22148 5.03238ZM10.3771 5.04734C10.2326 5.11894 10.1797 5.23134 10.1797 5.46651V5.65687H8.93595C8.10411 5.65687 7.67684 5.6651 7.64577 5.68176C7.53336 5.74198 7.54393 5.92805 7.66285 5.98227C7.70368 6.00089 8.08655 6.00878 8.95032 6.00878H10.1797V6.20472C10.1797 6.42891 10.2226 6.52068 10.3673 6.60575C10.4437 6.65068 10.4866 6.65394 11 6.65394C11.5134 6.65394 11.5563 6.65068 11.6327 6.60575C11.7774 6.52068 11.8203 6.42891 11.8203 6.20472V6.00878H13.5781H15.3359L15.3365 6.14367C15.3373 6.34647 15.3701 6.45277 15.4594 6.5421C15.5486 6.63144 15.6548 6.66426 15.8574 6.66511L15.9922 6.66567V8.4252V10.1847H15.7964C15.5725 10.1847 15.4808 10.2277 15.3958 10.3725C15.3509 10.449 15.3477 10.492 15.3477 11.0059C15.3477 11.5198 15.3509 11.5627 15.3958 11.6392C15.4808 11.784 15.5725 11.827 15.7964 11.827H15.9922V13.5865V15.346L15.8574 15.3466C15.6548 15.3474 15.5486 15.3803 15.4594 15.4696C15.3701 15.5589 15.3373 15.6652 15.3365 15.868L15.3359 16.0029H15.173C15.0834 16.0029 14.9839 16.0148 14.9519 16.0294C14.833 16.0837 14.8224 16.2697 14.9348 16.3299C14.9604 16.3436 15.0596 16.3548 15.1553 16.3548H15.3293L15.3415 16.5499C15.3553 16.7714 15.3946 16.8662 15.5055 16.9454C15.5808 16.9991 15.5918 17 16.1721 17C16.7315 17 16.7656 16.9975 16.8269 16.9516C16.8625 16.925 16.9134 16.8741 16.94 16.8385C16.9858 16.7771 16.9883 16.743 16.9883 16.183C16.9883 15.6021 16.9874 15.5911 16.9337 15.5158C16.8546 15.4048 16.7599 15.3654 16.5386 15.3516L16.3438 15.3394V13.5832V11.827H16.5339C16.7704 11.827 16.8825 11.7736 16.9531 11.6276C16.9957 11.5395 17 11.4827 17 11.0059C17 10.529 16.9957 10.4722 16.9531 10.3842C16.8825 10.2381 16.7704 10.1847 16.5339 10.1847H16.3438V8.42851V6.67228L16.5386 6.66011C16.7599 6.64629 16.8546 6.60695 16.9337 6.49593C16.9874 6.4206 16.9883 6.40957 16.9883 5.82867C16.9883 5.26872 16.9858 5.23465 16.94 5.17323C16.9134 5.1376 16.8625 5.08669 16.8269 5.06008C16.7656 5.01422 16.7315 5.01171 16.1721 5.01171C15.5918 5.01171 15.5808 5.01262 15.5055 5.06635C15.3946 5.14553 15.3553 5.24031 15.3415 5.46184L15.3293 5.65687H13.5748H11.8203V5.46651C11.8203 5.22984 11.767 5.11761 11.6211 5.0469C11.5331 5.00425 11.4764 4.99998 10.9985 5C10.5183 5.00002 10.4644 5.00413 10.3771 5.04734ZM6.30078 5.83282V6.30203H5.83203H5.36328L5.35693 5.82647L5.35058 5.3509L5.82568 5.35726L6.30078 5.36361V5.83282ZM11.4688 5.83282V6.31376H11H10.5312V5.83282V5.35188H11H11.4688V5.83282ZM16.6431 5.82696L16.6367 6.30203H16.168H15.6992L15.6928 5.85701C15.6893 5.61225 15.6916 5.39845 15.698 5.38194C15.7068 5.3589 15.8191 5.35188 16.1794 5.35188H16.6494L16.6431 5.82696ZM6.3125 11.0059V11.4751H5.83203H5.35156V11.0059V10.5366H5.83203H6.3125V11.0059ZM16.6484 11.0059V11.4751H16.168H15.6875V11.0059V10.5366H16.168H16.6484V11.0059ZM11.4688 16.1437V16.6129H11H10.5312V16.1437V15.6745H11H11.4688V16.1437ZM6.30078 16.1789V16.6481L5.82617 16.6545L5.35156 16.6608V16.195C5.35156 15.9388 5.3588 15.722 5.36766 15.7131C5.37652 15.7042 5.59011 15.6998 5.84227 15.7033L6.30078 15.7097V16.1789ZM16.6431 16.1852L16.6494 16.6608L16.1743 16.6545L15.6992 16.6481L15.6928 16.2031C15.6893 15.9583 15.6917 15.7443 15.6981 15.7275C15.7073 15.7035 15.8097 15.6983 16.1733 15.7033L16.6367 15.7097L16.6431 16.1852Z" fill="#42A8D4"/>
<path d="M21 21.25C21.1381 21.25 21.25 21.1381 21.25 21L21.25 18.75C21.25 18.6119 21.1381 18.5 21 18.5C20.8619 18.5 20.75 18.6119 20.75 18.75L20.75 20.75L18.75 20.75C18.6119 20.75 18.5 20.8619 18.5 21C18.5 21.1381 18.6119 21.25 18.75 21.25L21 21.25ZM17.8232 18.1768L20.8232 21.1768L21.1768 20.8232L18.1768 17.8232L17.8232 18.1768Z" fill="#42A8D4"/>
<path d="M21.25 1C21.25 0.861929 21.1381 0.75 21 0.75L18.75 0.75C18.6119 0.75 18.5 0.861929 18.5 1C18.5 1.13807 18.6119 1.25 18.75 1.25L20.75 1.25L20.75 3.25C20.75 3.38807 20.8619 3.5 21 3.5C21.1381 3.5 21.25 3.38807 21.25 3.25L21.25 1ZM18.1768 4.17678L21.1768 1.17678L20.8232 0.823223L17.8232 3.82322L18.1768 4.17678Z" fill="#42A8D4"/>
<path d="M0.75 21C0.75 21.1381 0.861929 21.25 1 21.25L3.25 21.25C3.38807 21.25 3.5 21.1381 3.5 21C3.5 20.8619 3.38807 20.75 3.25 20.75L1.25 20.75L1.25 18.75C1.25 18.6119 1.13807 18.5 1 18.5C0.861929 18.5 0.75 18.6119 0.75 18.75L0.75 21ZM3.82322 17.8232L0.823223 20.8232L1.17678 21.1768L4.17678 18.1768L3.82322 17.8232Z" fill="#42A8D4"/>
<path d="M1 0.75C0.861929 0.75 0.75 0.861929 0.75 1L0.75 3.25C0.75 3.38807 0.861929 3.5 1 3.5C1.13807 3.5 1.25 3.38807 1.25 3.25L1.25 1.25L3.25 1.25C3.38807 1.25 3.5 1.13807 3.5 1C3.5 0.861929 3.38807 0.75 3.25 0.75L1 0.75ZM4.17678 3.82322L1.17678 0.823223L0.823223 1.17678L3.82322 4.17678L4.17678 3.82322Z" fill="#42A8D4"/>
</svg>
