<svg width="28" height="24" viewBox="0 0 28 24" fill="none" xmlns="http://www.w3.org/2000/svg">
<path fill-rule="evenodd" clip-rule="evenodd" d="M4.16958 0.0665688C3.65142 0.212147 3.21737 0.473116 2.81306 0.882014C2.16239 1.54012 1.91236 2.16476 1.91236 3.13224C1.91236 3.6398 1.9228 3.69525 2.0389 3.80435C2.19772 3.95354 2.40296 3.95644 2.55827 3.81173C2.62412 3.75043 2.68033 3.69503 2.68323 3.68869C2.68613 3.68234 2.70669 3.39414 2.7289 3.04824C2.76275 2.52193 2.79474 2.3658 2.92506 2.09121C3.12374 1.67263 3.59285 1.20155 4.01783 0.993795C4.31729 0.847397 4.3961 0.833397 4.92017 0.833397C5.44818 0.833397 5.52299 0.846959 5.85002 1.00194C6.52 1.31946 6.99381 1.95985 7.10833 2.70278C7.13994 2.9078 7.15886 3.50625 7.15038 4.03262L7.13501 4.98965L6.744 5.00562L6.35298 5.02158L6.33368 3.85718C6.31563 2.7695 6.30595 2.67571 6.1869 2.43361C5.68257 1.40822 4.3144 1.34806 3.70726 2.32456C3.58158 2.52669 3.58005 2.54971 3.55298 4.63418L3.52564 6.73965L3.12915 6.75573L2.73267 6.7718V6.03926C2.73267 5.27233 2.67875 4.99583 2.51179 4.90647C2.35095 4.82039 2.13958 4.84445 2.02173 4.9623C1.92122 5.06282 1.91236 5.14458 1.91236 5.9703V6.86893L1.753 6.9824C1.4526 7.19629 1.36548 7.48203 1.36548 8.25318V8.93923L1.09576 8.97117C0.58542 9.03165 0.210811 9.32046 0.0605293 9.76928C-0.0294316 10.038 -0.0168535 10.6718 0.0832246 10.9113C0.181498 11.1465 0.400193 11.3923 0.607787 11.5007L0.752381 11.5763L0.778412 13.0681C0.806904 14.7051 0.851256 15.0517 1.17681 16.1828L1.36548 16.8382V19.5885V22.3387L1.10785 22.3677C0.693865 22.4144 0.50224 22.8022 0.76392 23.0639C0.872639 23.1726 0.946193 23.1732 13.3673 23.1732H25.8612L25.9727 23.0535C26.1127 22.9033 26.1156 22.6772 25.9797 22.5094L25.8753 22.3803L23.6734 22.3529L21.4716 22.3256L21.7655 22.1889C22.927 21.6486 24.1622 20.6798 25.0428 19.6186C25.8985 18.5872 26.6408 17.1469 26.9594 15.8998C27.2115 14.9133 27.2464 14.5988 27.2729 13.0766L27.2987 11.5932L27.5453 11.387C27.8749 11.1116 27.9956 10.8327 27.9971 10.3435C27.9991 9.71459 27.8095 9.33402 27.3799 9.10439L27.1506 8.98183L21.9556 8.96707C18.3066 8.95673 16.7178 8.97002 16.617 9.0118C16.479 9.06895 16.3499 9.26364 16.3499 9.41452C16.3499 9.45417 16.4006 9.55108 16.4626 9.62988L16.5753 9.77316L21.799 9.78765C27.7682 9.80422 27.178 9.74538 27.178 10.3236C27.178 10.8129 27.2005 10.8051 25.7197 10.8246C24.5661 10.8397 24.4448 10.8504 24.3399 10.9454C24.1897 11.0813 24.1869 11.3775 24.3342 11.5248C24.4358 11.6264 24.5165 11.6342 25.4617 11.6342H26.4797L26.4517 13.0971C26.4207 14.7189 26.3605 15.1338 25.9987 16.2198C25.5441 17.5844 24.8849 18.6381 23.8186 19.7048C22.5044 21.0197 21.0877 21.7913 19.2346 22.2015C18.6762 22.3251 18.6565 22.3256 14.0256 22.3256C9.4052 22.3256 9.37387 22.3248 8.82136 22.2025C6.96379 21.791 5.55701 21.0248 4.2322 19.7033C3.16765 18.6413 2.50818 17.5873 2.05258 16.2198C1.69076 15.1338 1.63055 14.7189 1.59954 13.0971L1.57154 11.6342H4.23023C6.81602 11.6342 6.89193 11.6312 6.99829 11.5248C7.14568 11.3774 7.14278 11.0813 6.99261 10.9454C6.8829 10.8461 6.74044 10.8405 3.94651 10.8261C0.586076 10.8088 0.818607 10.8462 0.818607 10.3236C0.818607 9.75785 0.542709 9.80608 3.95679 9.7748C6.67077 9.74992 6.9482 9.73904 7.03286 9.65438C7.17865 9.50848 7.15175 9.23285 6.97702 9.08257C6.83254 8.95826 6.79836 8.95449 5.81945 8.95449H4.81079L4.81047 8.31191C4.81014 7.56007 4.763 7.351 4.53851 7.10518L4.37329 6.92433V4.84533V2.76638L4.53315 2.60653C4.84197 2.29771 5.34504 2.44159 5.46486 2.87297C5.49581 2.98442 5.52124 3.60097 5.5214 4.24316L5.52173 5.41074L5.70275 5.59176C5.92281 5.81182 6.17306 5.85972 6.93076 5.82691C7.59559 5.79809 7.77234 5.71595 7.90244 5.37541C7.98464 5.16005 7.99284 4.96684 7.96927 3.80194C7.94576 2.64344 7.92755 2.42869 7.82637 2.11855C7.52089 1.18236 6.83472 0.468303 5.92954 0.144553C5.5021 -0.00829851 4.58127 -0.0490953 4.16958 0.0665688ZM3.92486 7.65293C3.96817 7.69624 3.99048 7.92877 3.99048 8.33652V8.95449H3.08814H2.1858V8.33652C2.1858 7.92877 2.20811 7.69624 2.25142 7.65293C2.29626 7.60808 2.56133 7.5873 3.08814 7.5873C3.61494 7.5873 3.88001 7.60808 3.92486 7.65293ZM8.57559 8.62751C8.2869 8.78004 8.05037 9.09372 7.98092 9.41622C7.93963 9.60822 7.92662 11.3592 7.93837 15.1435L7.95533 20.5941L8.088 20.7353C8.16095 20.813 8.30861 20.901 8.41612 20.9308C8.68519 21.0056 14.8335 21.0038 15.1033 20.9289C15.2147 20.8979 15.3561 20.8086 15.4177 20.7304C15.5272 20.5912 15.5295 20.5268 15.5295 17.6971C15.5295 14.879 15.5268 14.8033 15.4202 14.6967C15.282 14.5585 15.0331 14.5563 14.8657 14.6917C14.7408 14.7927 14.736 14.8259 14.7192 15.7039L14.7018 16.6117L11.7388 16.5976L8.77564 16.5834L8.76158 13.0881C8.74922 10.0263 8.75787 9.57694 8.8312 9.46505L8.91487 9.3373H11.7261C14.2089 9.3373 14.5474 9.34737 14.6233 9.42322C14.698 9.49798 14.7092 9.75003 14.7092 11.3565C14.7092 12.5054 14.7309 13.2661 14.7667 13.3685C14.8206 13.5234 15.0076 13.6576 15.1693 13.6576C15.2089 13.6576 15.307 13.6059 15.3873 13.5428L15.5332 13.428L15.5177 11.3326L15.5022 9.23717L15.3381 9.00431C15.2479 8.87629 15.0656 8.71419 14.9331 8.64425L14.692 8.51699L11.7339 8.5194C8.91815 8.52169 8.76601 8.52689 8.57559 8.62751ZM16.5352 10.9419C16.3421 11.108 16.3306 11.3874 16.5109 11.5333C16.6287 11.6288 16.8067 11.6342 19.8225 11.6342C22.8384 11.6342 23.0163 11.6288 23.1342 11.5333C23.3144 11.3874 23.3029 11.108 23.1098 10.9419L22.9609 10.8139H19.8225H16.6841L16.5352 10.9419ZM14.7092 17.7865V18.142H11.7288H8.74829V17.7865V17.4311H11.7288H14.7092V17.7865ZM2.52956 18.9796C2.86594 19.4685 3.62216 20.3481 3.83845 20.5021L3.99048 20.6104V21.4816V22.3529H3.08814H2.1858V20.4297C2.1858 19.372 2.19897 18.5198 2.21511 18.5359C2.23124 18.552 2.37277 18.7517 2.52956 18.9796ZM14.7092 19.5644V20.1664L11.7424 20.1522L8.77564 20.1381L8.75978 19.6227C8.75108 19.3392 8.75644 19.0746 8.77176 19.0348C8.79434 18.9759 9.35177 18.9623 11.7544 18.9623H14.7092V19.5644ZM6.04126 22.0625L6.58814 22.3506L5.69947 22.3518L4.81079 22.3529V21.8314V21.3098L5.15259 21.5421C5.34061 21.6699 5.74048 21.9041 6.04126 22.0625Z" fill="#42A8D4"/>
</svg>
