<svg width="27" height="23" viewBox="0 0 27 23" fill="none" xmlns="http://www.w3.org/2000/svg">
<path fill-rule="evenodd" clip-rule="evenodd" d="M12.8611 0.0221503C11.2311 0.146392 9.86185 0.71893 8.28182 1.93683C7.76824 2.33271 7.20166 2.62254 6.64199 2.77578C6.28683 2.87297 6.03966 2.88847 4.3972 2.91637L2.55149 2.94775L2.28307 3.08918C2.002 3.23726 1.74761 3.49033 1.59009 3.77858C1.50424 3.93562 1.49564 4.20483 1.48209 7.14609L1.46733 10.343L1.02573 10.7905C0.676468 11.1446 0.539676 11.3306 0.371295 11.6806C-0.0157756 12.4852 -0.0109768 12.4102 0.0055818 17.374L0.0202419 21.7812L0.160568 21.9932C0.389172 22.3387 0.590881 22.4064 1.39134 22.4061C2.14855 22.4059 2.29093 22.3636 2.54316 22.0638C2.73111 21.8405 2.78816 21.5939 2.78848 21.0035C2.78874 20.5651 2.80488 20.473 2.9085 20.3179C2.97432 20.2194 3.11079 20.0972 3.21173 20.0466C3.38454 19.9597 3.98465 19.9543 13.4939 19.9543C23.0031 19.9543 23.6032 19.9597 23.776 20.0466C23.877 20.0972 24.0134 20.2194 24.0792 20.3179C24.1829 20.473 24.199 20.5651 24.1993 21.0035C24.1996 21.5939 24.2566 21.8405 24.4446 22.0638C24.6968 22.3636 24.8392 22.4059 25.5964 22.4061C26.2486 22.4063 26.2939 22.3993 26.5274 22.262C26.6991 22.1611 26.8065 22.0481 26.885 21.8859C26.9972 21.6542 26.9972 21.6522 26.9823 17.1259L26.9674 12.5977L26.8436 12.2286C26.6405 11.6226 26.4154 11.256 25.9539 10.7799L25.5204 10.3326L25.5057 7.14097C25.4921 4.20457 25.4835 3.93562 25.3977 3.77858C25.2401 3.49033 24.9858 3.23726 24.7047 3.08918L24.4363 2.94775L22.5906 2.91637C20.9377 2.88826 20.7024 2.87339 20.3386 2.77394C19.7941 2.62507 19.2395 2.34768 18.7927 2.0008C17.901 1.30834 17.1204 0.836158 16.3794 0.540898C15.3241 0.120342 14.0454 -0.0681837 12.8611 0.0221503ZM14.7204 0.897172C15.9404 1.09798 16.9413 1.57544 18.24 2.57623C18.7854 2.99653 19.23 3.23547 19.8517 3.44234C20.5354 3.66984 20.9723 3.71197 22.6488 3.71197C24.3179 3.71197 24.432 3.73085 24.6195 4.0384C24.7228 4.20778 24.7259 4.29738 24.7261 7.07732C24.7263 9.78102 24.7211 9.94017 24.634 9.91338C24.1684 9.77031 23.7787 9.72517 23.0032 9.72448L22.1503 9.72369L22.1324 8.07574C22.1176 6.71108 22.1001 6.39594 22.0308 6.24238C21.9385 6.03803 21.6229 5.73634 21.4211 5.65961C21.3471 5.63145 20.1475 5.61078 18.6189 5.61126C15.9478 5.61215 15.9459 5.6122 15.7373 5.73038C15.6224 5.7954 15.4563 5.95129 15.3682 6.07674C15.2235 6.28246 15.2059 6.35133 15.1892 6.77906C15.1721 7.21359 15.1806 7.26395 15.2906 7.38107C15.4581 7.55937 15.7181 7.55431 15.8631 7.36989C15.9458 7.26479 15.9724 7.15474 15.9724 6.91817C15.9724 6.35096 15.7127 6.40143 18.6309 6.40143C20.9371 6.40143 21.1871 6.40976 21.2526 6.48854C21.3103 6.5581 21.3249 6.89107 21.3249 8.13649V9.69733L18.6487 9.71098L15.9724 9.72464V9.30662C15.9724 9.0767 15.9576 8.85015 15.9396 8.80321C15.8902 8.67444 15.6242 8.55626 15.4706 8.59481C15.2459 8.65123 15.1814 8.80575 15.1814 9.28721V9.72369H13.4959H11.8105L11.7952 8.01426L11.78 6.30482L11.6196 6.07674C11.5314 5.95129 11.3653 5.7954 11.2504 5.73038C11.0419 5.6122 11.0399 5.61215 8.36889 5.61126C6.61035 5.61073 5.64526 5.62955 5.5476 5.66636C5.46596 5.69716 5.3192 5.79804 5.22149 5.89048C4.88225 6.21158 4.87513 6.25398 4.85535 8.07574L4.83747 9.72369H4.00116C3.24353 9.72369 2.67078 9.78861 2.35374 9.91048C2.26657 9.94396 2.26145 9.78782 2.26166 7.07943C2.26182 4.29738 2.26499 4.20784 2.36829 4.0384C2.55576 3.73085 2.66988 3.71197 4.33898 3.71197C6.0154 3.71197 6.45236 3.66984 7.13601 3.44234C7.7992 3.22165 8.19671 2.99837 8.99627 2.39757C9.37949 2.10959 9.88969 1.76776 10.1301 1.63798C11.5338 0.880033 13.0902 0.628859 14.7204 0.897172ZM10.9608 6.50342C10.9948 6.56717 11.0154 7.19081 11.0154 8.16502V9.72464L8.33909 9.71098L5.66282 9.69733V8.13649C5.66282 6.89107 5.67743 6.5581 5.73517 6.48854C5.80067 6.40976 6.05063 6.40143 8.35686 6.40143C10.8233 6.40143 10.9079 6.40475 10.9608 6.50342ZM24.1091 10.5932C25.1101 10.8539 25.8896 11.6448 26.1234 12.6367C26.1818 12.8841 26.2015 13.3203 26.2021 14.3775L26.2029 15.7881H14.9441C3.75558 15.7881 3.68465 15.7888 3.57981 15.8936C3.44655 16.0269 3.44444 16.2669 3.57517 16.4283L3.67595 16.5528L14.9394 16.5663L26.2029 16.5799V19.0475C26.2029 20.8964 26.187 21.531 26.1396 21.5784C26.0527 21.6653 25.1961 21.6632 25.0833 21.5757C25.0156 21.5233 24.9943 21.3805 24.9788 20.877C24.9629 20.36 24.939 20.2056 24.848 20.0333C24.6977 19.7486 24.393 19.454 24.0988 19.3091L23.8562 19.1895H13.4939H3.13157L2.88899 19.3091C2.59479 19.454 2.29004 19.7486 2.13979 20.0333C2.04878 20.2056 2.02483 20.36 2.00896 20.877C1.99346 21.3805 1.9721 21.5233 1.90444 21.5757C1.79169 21.6632 0.935078 21.6653 0.848172 21.5784C0.800764 21.531 0.78489 20.8973 0.78489 19.0513V16.5875L1.46506 16.5701C2.04471 16.5554 2.16163 16.5379 2.25607 16.4523C2.40078 16.3212 2.40352 16.0357 2.26145 15.8936C2.16679 15.799 2.08569 15.7881 1.47044 15.7881H0.78489L0.785681 14.3775C0.786261 13.3203 0.805931 12.8841 0.864308 12.6367C1.0955 11.6561 1.87143 10.8611 2.85603 10.5959C3.2826 10.481 23.6684 10.4784 24.1091 10.5932Z" fill="#42A8D4"/>
</svg>
