<svg width="20" height="21" viewBox="0 0 20 21" fill="none" xmlns="http://www.w3.org/2000/svg">
<g clip-path="url(#clip0_0_696)">
<path d="M15.956 3.22649C14.3609 1.62005 12.24 0.735352 9.98417 0.735352C7.72831 0.735352 5.60739 1.62005 4.01228 3.22649C2.41712 4.83297 1.53864 6.96882 1.53864 9.2406C1.53864 13.8364 5.85356 17.659 8.17171 19.7126C8.49385 19.998 8.77204 20.2444 8.99368 20.4529C9.27136 20.7141 9.62779 20.8448 9.98414 20.8448C10.3406 20.8448 10.6969 20.7141 10.9746 20.4529C11.1963 20.2444 11.4745 19.998 11.7966 19.7126C14.1147 17.6589 18.4297 13.8364 18.4297 9.2406C18.4296 6.96882 17.5512 4.83297 15.956 3.22649ZM11.024 18.8282C10.6948 19.1198 10.4105 19.3717 10.1761 19.5921C10.0685 19.6933 9.89982 19.6934 9.7921 19.5921C9.55774 19.3716 9.27343 19.1197 8.94423 18.8281C6.76488 16.8975 2.70826 13.3037 2.70826 9.24064C2.70826 5.20036 5.97216 1.91337 9.9841 1.91337C13.996 1.91337 17.2599 5.20036 17.2599 9.24064C17.2599 13.3037 13.2033 16.8975 11.024 18.8282Z" fill="#42A8D4"/>
<path d="M9.98412 5.17149C7.93188 5.17149 6.26227 6.853 6.26227 8.91992C6.26227 10.9868 7.93188 12.6683 9.98412 12.6683C12.0364 12.6683 13.7059 10.9868 13.7059 8.91992C13.7059 6.853 12.0364 5.17149 9.98412 5.17149ZM9.98412 11.4902C8.57687 11.4902 7.43197 10.3372 7.43197 8.91988C7.43197 7.5026 8.57687 6.34952 9.98412 6.34952C11.3914 6.34952 12.5362 7.5026 12.5362 8.91988C12.5362 10.3372 11.3914 11.4902 9.98412 11.4902Z" fill="#42A8D4"/>
</g>
<defs>
<clipPath id="clip0_0_696">
<rect width="19.9682" height="20.1094" fill="white" transform="translate(0 0.735352)"/>
</clipPath>
</defs>
</svg>
