<svg width="24" height="25" viewBox="0 0 24 25" fill="none" xmlns="http://www.w3.org/2000/svg">
<g clip-path="url(#clip0_193_1057)">
<path d="M3.064 8.47046C3.89601 6.81032 5.17237 5.41475 6.75043 4.43972C8.32849 3.46469 10.1461 2.94863 12 2.94922C14.695 2.94922 16.959 3.94124 18.69 5.55953L15.823 8.43338C14.786 7.44036 13.468 6.93433 12 6.93433C9.395 6.93433 7.19 8.69792 6.405 11.0657C6.205 11.667 6.091 12.3083 6.091 12.9696C6.091 13.631 6.205 14.2723 6.405 14.8735C7.191 17.2423 9.395 19.0049 12 19.0049C13.345 19.0049 14.49 18.6492 15.386 18.0479C15.9054 17.7053 16.3501 17.2606 16.6932 16.7408C17.0363 16.221 17.2706 15.6369 17.382 15.0238H12V11.1479H21.418C21.536 11.8032 21.6 12.4866 21.6 13.1971C21.6 16.2493 20.51 18.8185 18.618 20.5621C16.964 22.0932 14.7 22.99 12 22.99C10.6866 22.9905 9.38604 22.7317 8.17254 22.2283C6.95905 21.7249 5.85645 20.9869 4.92776 20.0563C3.99907 19.1257 3.2625 18.0208 2.76013 16.8049C2.25777 15.5889 1.99948 14.2857 2 12.9696C2 11.3523 2.386 9.82321 3.064 8.47046Z" fill="#BCBCBC"/>
</g>
<defs>
<clipPath id="clip0_193_1057">
<rect width="24" height="24.0489" fill="white" transform="translate(0 0.945312)"/>
</clipPath>
</defs>
</svg>
