<svg width="24" height="25" viewBox="0 0 24 25" fill="none" xmlns="http://www.w3.org/2000/svg">
<g clip-path="url(#clip0_193_1048)">
<path d="M6.94043 5.95528C6.94016 6.48679 6.7292 6.99643 6.35394 7.37208C5.97868 7.74773 5.46986 7.95862 4.93943 7.95835C4.409 7.95809 3.90039 7.74669 3.52551 7.37066C3.15062 6.99464 2.94016 6.48479 2.94043 5.95327C2.9407 5.42176 3.15166 4.91212 3.52692 4.53647C3.90218 4.16082 4.411 3.94993 4.94143 3.9502C5.47186 3.95046 5.98047 4.16186 6.35535 4.53789C6.73024 4.91391 6.9407 5.42376 6.94043 5.95528V5.95528ZM7.00043 9.44237H3.00043V21.9879H7.00043V9.44237ZM13.3204 9.44237H9.34043V21.9879H13.2804V15.4045C13.2804 11.737 18.0504 11.3964 18.0504 15.4045V21.9879H22.0004V14.0417C22.0004 7.85915 14.9404 8.08962 13.2804 11.1258L13.3204 9.44237V9.44237Z" fill="#BCBCBC"/>
</g>
<defs>
<clipPath id="clip0_193_1048">
<rect width="24" height="24.0489" fill="white" transform="translate(0 0.945312)"/>
</clipPath>
</defs>
</svg>
