<svg width="19" height="21" viewBox="0 0 19 21" fill="none" xmlns="http://www.w3.org/2000/svg">
<path d="M11.1202 16.0031L6.92121 13.7084C6.373 14.2957 5.66119 14.7041 4.87828 14.8807C4.09537 15.0572 3.27756 14.9937 2.53113 14.6984C1.7847 14.4032 1.14417 13.8897 0.692774 13.2249C0.241381 12.56 0 11.7745 0 10.9703C0 10.1662 0.241381 9.38065 0.692774 8.71579C1.14417 8.05093 1.7847 7.53749 2.53113 7.24219C3.27756 6.9469 4.09537 6.88341 4.87828 7.05997C5.66119 7.23654 6.373 7.64499 6.92121 8.23225L11.1212 5.93758C10.8828 4.99173 10.9968 3.9912 11.4418 3.12355C11.8869 2.2559 12.6325 1.58069 13.5389 1.22449C14.4452 0.868282 15.4501 0.855539 16.3652 1.18865C17.2803 1.52175 18.0427 2.17784 18.5095 3.03393C18.9764 3.89002 19.1156 4.88733 18.9011 5.83892C18.6866 6.79052 18.1332 7.63106 17.3444 8.203C16.5557 8.77494 15.5859 9.039 14.6168 8.94569C13.6477 8.85239 12.7458 8.40812 12.0802 7.69616L7.88021 9.99083C8.04141 10.6335 8.04141 11.3061 7.88021 11.9488L12.0792 14.2435C12.7448 13.5315 13.6467 13.0873 14.6158 12.9939C15.5849 12.9006 16.5547 13.1647 17.3434 13.7366C18.1322 14.3086 18.6856 15.1491 18.9001 16.1007C19.1146 17.0523 18.9754 18.0496 18.5085 18.9057C18.0417 19.7618 17.2793 20.4179 16.3642 20.751C15.4491 21.0841 14.4442 21.0714 13.5379 20.7152C12.6315 20.3589 11.8859 19.6837 11.4408 18.8161C10.9958 17.9484 10.8818 16.9479 11.1202 16.0021V16.0031ZM4.00021 12.9739C4.53064 12.9739 5.03935 12.7628 5.41442 12.3869C5.78949 12.0111 6.00021 11.5013 6.00021 10.9698C6.00021 10.4383 5.78949 9.92856 5.41442 9.55272C5.03935 9.17688 4.53064 8.96574 4.00021 8.96574C3.46977 8.96574 2.96107 9.17688 2.58599 9.55272C2.21092 9.92856 2.00021 10.4383 2.00021 10.9698C2.00021 11.5013 2.21092 12.0111 2.58599 12.3869C2.96107 12.7628 3.46977 12.9739 4.00021 12.9739V12.9739ZM15.0002 6.96166C15.5306 6.96166 16.0393 6.75052 16.4144 6.37468C16.7895 5.99884 17.0002 5.4891 17.0002 4.95758C17.0002 4.42607 16.7895 3.91632 16.4144 3.54049C16.0393 3.16465 15.5306 2.9535 15.0002 2.9535C14.4698 2.9535 13.9611 3.16465 13.586 3.54049C13.2109 3.91632 13.0002 4.42607 13.0002 4.95758C13.0002 5.4891 13.2109 5.99884 13.586 6.37468C13.9611 6.75052 14.4698 6.96166 15.0002 6.96166V6.96166ZM15.0002 18.9861C15.5306 18.9861 16.0393 18.775 16.4144 18.3992C16.7895 18.0233 17.0002 17.5136 17.0002 16.9821C17.0002 16.4505 16.7895 15.9408 16.4144 15.565C16.0393 15.1891 15.5306 14.978 15.0002 14.978C14.4698 14.978 13.9611 15.1891 13.586 15.565C13.2109 15.9408 13.0002 16.4505 13.0002 16.9821C13.0002 17.5136 13.2109 18.0233 13.586 18.3992C13.9611 18.775 14.4698 18.9861 15.0002 18.9861V18.9861Z" fill="#021540"/>
</svg>
