<svg width="24" height="25" viewBox="0 0 24 25" fill="none" xmlns="http://www.w3.org/2000/svg">
<g clip-path="url(#clip0_193_1045)">
<path d="M22.1623 6.61306C21.3989 6.95145 20.5893 7.17368 19.7603 7.27241C20.634 6.74877 21.288 5.92468 21.6003 4.95369C20.7803 5.44268 19.8813 5.78538 18.9443 5.97076C18.3149 5.29596 17.4807 4.84844 16.5713 4.69775C15.6618 4.54707 14.7282 4.70166 13.9156 5.13751C13.1029 5.57336 12.4567 6.26604 12.0774 7.10786C11.6981 7.94969 11.607 8.89348 11.8183 9.79254C10.1554 9.70902 8.52863 9.27601 7.04358 8.52161C5.55854 7.76722 4.24842 6.70831 3.1983 5.41362C2.82659 6.05338 2.63125 6.78063 2.6323 7.52091C2.6323 8.97387 3.3703 10.2575 4.4923 11.009C3.82831 10.9881 3.17893 10.8084 2.5983 10.4849V10.537C2.5985 11.5047 2.93267 12.4425 3.54414 13.1915C4.15562 13.9405 5.00678 14.4545 5.9533 14.6464C5.33691 14.8138 4.6906 14.8385 4.0633 14.7186C4.33016 15.5515 4.8503 16.2799 5.55089 16.8019C6.25147 17.3239 7.09743 17.6132 7.9703 17.6295C7.10278 18.3122 6.10947 18.8169 5.04718 19.1147C3.98488 19.4125 2.87442 19.4975 1.7793 19.365C3.69099 20.597 5.91639 21.251 8.1893 21.2488C15.8823 21.2488 20.0893 14.8629 20.0893 9.32458C20.0893 9.14422 20.0843 8.96184 20.0763 8.78348C20.8952 8.19044 21.6019 7.4558 22.1633 6.61407L22.1623 6.61306Z" fill="#BCBCBC"/>
</g>
<defs>
<clipPath id="clip0_193_1045">
<rect width="24" height="24.0489" fill="white" transform="translate(0 0.945312)"/>
</clipPath>
</defs>
</svg>
