<svg width="41" height="42" viewBox="0 0 41 42" fill="none" xmlns="http://www.w3.org/2000/svg">
<path d="M40.5 21C40.5 32.3333 31.5344 41.5 20.5 41.5C9.4656 41.5 0.5 32.3333 0.5 21C0.5 9.66674 9.4656 0.5 20.5 0.5C31.5344 0.5 40.5 9.66674 40.5 21Z" stroke="#42A8D4"/>
<path d="M21.929 31.1919V21.9101H25.0156L25.4744 18.276H21.929V15.9612C21.929 14.9126 22.217 14.1946 23.7006 14.1946H25.5804V10.9546C24.6658 10.8551 23.7464 10.8071 22.8265 10.8107C20.0983 10.8107 18.2252 12.5004 18.2252 15.6022V18.2692H15.1587V21.9033H18.2319V31.1919H21.929Z" fill="#42A8D4"/>
</svg>
