<svg width="68" height="79" viewBox="0 0 68 79" fill="none" xmlns="http://www.w3.org/2000/svg">
<path d="M25.7068 51.0613C21.739 51.0613 17.7713 51.0613 13.8035 51.0613C13.8035 50.9717 13.8035 50.8709 13.8035 50.7812C17.7713 50.7812 21.739 50.7812 25.718 50.7812C25.7068 50.8709 25.7068 50.9605 25.7068 51.0613Z" fill="white"/>
<path d="M25.6844 47.4875C21.7166 47.4875 17.76 47.4875 13.7922 47.4875C13.7922 47.3867 13.7922 47.2971 13.7922 47.1963C17.7712 47.1963 21.739 47.1963 25.7179 47.1963C25.7068 47.2859 25.6956 47.3867 25.6844 47.4875Z" fill="white"/>
<path d="M19.7272 43.9478C24.3506 43.9478 28.0986 43.8676 28.0986 43.7686C28.0986 43.6696 24.3506 43.5894 19.7272 43.5894C15.1037 43.5894 11.3557 43.6696 11.3557 43.7686C11.3557 43.8676 15.1037 43.9478 19.7272 43.9478Z" fill="white"/>
<path d="M8.48315 30.0684C9.96968 30.0684 9.0867 30.0684 10.5732 30.0684C10.5732 30.1692 10.5844 30.2588 10.5844 30.3596C9.09788 30.3596 9.98085 30.3596 8.49433 30.3596C8.48315 30.2588 8.48315 30.158 8.48315 30.0684Z" fill="white"/>
<path d="M8.48315 33.1152C9.96968 33.1152 11.4562 33.1152 12.9315 33.1152C12.9315 33.2161 12.9427 33.3057 12.9427 33.4065C11.4562 33.4065 9.96968 33.4065 8.48315 33.4065C8.48315 33.3057 8.48315 33.2161 8.48315 33.1152Z" fill="white"/>
<path d="M8.48315 36.1626C9.96968 36.1626 11.4562 36.1626 12.9315 36.1626C12.9315 36.2634 12.9427 36.353 12.9427 36.4539C11.4562 36.4539 9.96968 36.4539 8.48315 36.4539C8.48315 36.3642 8.48315 36.2634 8.48315 36.1626Z" fill="white"/>
<path d="M8.48315 27.0103C9.96968 27.0103 11.4562 27.0103 12.9315 27.0103C12.9315 27.1111 12.9427 27.2007 12.9427 27.3015C11.4562 27.3015 9.96968 27.3015 8.48315 27.3015C8.48315 27.2119 8.48315 27.1111 8.48315 27.0103Z" fill="white"/>
<path d="M8.48315 23.9634C9.96968 23.9634 11.4562 23.9634 12.9315 23.9634C12.9315 24.0642 12.9427 24.1538 12.9427 24.2546C11.4562 24.2546 9.96968 24.2546 8.48315 24.2546C8.48315 24.1538 8.48315 24.0642 8.48315 23.9634Z" fill="white"/>
<path d="M10.5508 20.9053C12.0373 20.9053 11.4449 20.9053 12.9315 20.9053C12.9315 21.0061 12.9426 21.0957 12.9426 21.1965C11.4561 21.1965 12.0373 21.1965 10.562 21.1965C10.5508 21.1069 10.5508 21.0061 10.5508 20.9053Z" fill="white"/>
<path d="M8.48315 17.8584C9.96968 17.8584 11.4562 17.8584 12.9315 17.8584C12.9315 17.9592 12.9427 18.0488 12.9427 18.1497C11.4562 18.1497 9.96968 18.1497 8.48315 18.1497C8.48315 18.0488 8.48315 17.9592 8.48315 17.8584Z" fill="white"/>
<path d="M18.4417 25.0386H16.374V27.111H18.4417V25.0386Z" fill="white"/>
<path d="M21.627 25.0386H19.5593V27.111H21.627V25.0386Z" fill="white"/>
<path d="M18.4417 27.873H16.374V29.9454H18.4417V27.873Z" fill="white"/>
<path d="M21.627 27.873H19.5593V29.9454H21.627V27.873Z" fill="white"/>
<path d="M18.4417 30.7183H16.374V32.7906H18.4417V30.7183Z" fill="white"/>
<path d="M21.627 30.7183H19.5593V32.7906H21.627V30.7183Z" fill="white"/>
<path d="M18.4417 33.5635H16.374V35.6359H18.4417V33.5635Z" fill="white"/>
<path d="M21.627 33.5635H19.5593V35.6359H21.627V33.5635Z" fill="white"/>
<path d="M7.38779 52.7974C7.38779 52.6854 7.38779 52.5733 7.38779 52.4613L7.32073 13.915C8.58372 13.6014 9.89141 13.3213 11.065 12.6492C12.2609 11.9659 13.1662 10.9689 14.1833 9.74786V39.1309L10.1597 40.4975C10.1597 44.6087 10.1597 48.6974 10.1597 52.7862H11.255V41.1808L28.2103 36.8008L28.2215 38.8508C28.2215 38.8508 28.2326 48.0365 28.255 52.6405C28.255 52.6966 28.255 52.7414 28.255 52.7974H29.2833V35.423C27.3944 35.8039 26.0196 36.0951 24.0413 36.5096V23.5152C28.3109 29.3403 32.3569 34.8629 36.3359 40.3071H38.18C43.0867 33.7763 48.3733 27.3911 53.2688 20.8715V52.8086H62.0091V7.33942H51.9499C47.155 13.9374 42.3714 20.5466 37.4647 27.3127C32.491 20.5018 27.6626 13.8926 22.7671 7.19379H15.6475C15.6363 4.65092 15.6587 2.8698 15.424 0.506162C15.3569 -0.199567 14.3063 -0.154759 14.3063 0.562173C14.3063 0.573375 14.3063 0.584577 14.3063 0.584577C14.2839 1.89522 14.2616 3.20586 14.2839 4.5165C14.3622 8.80689 11.6909 11.8538 7.46603 12.6044C6.9966 12.6716 6.90719 12.694 6.13599 12.8508V52.7974H7.38779ZM53.3247 20.8827C53.3359 20.8827 53.3359 20.8827 53.3247 20.8827ZM53.3023 20.8827H53.3135C53.3135 20.8827 53.3135 20.8827 53.3023 20.8827ZM15.6028 24.557C17.7823 23.336 20.0623 22.0925 22.5995 20.7147C22.5995 26.2261 22.5995 31.5695 22.5995 37.0249L15.6028 38.8732C15.6028 34.0451 15.6028 29.3851 15.6028 24.557Z" fill="#42A8D4"/>
<path d="M10.2045 59.6422L6.38199 64.7503H5.94609L2.21302 59.631V68.1782H0V56.416H2.54832L6.21433 61.4681L9.88034 56.416H12.4063V68.1782H10.2045V59.6422Z" fill="white"/>
<path d="M19.8501 68.1559V63.7198C19.8501 62.6332 19.2801 61.6363 18.1624 61.6363C17.0559 61.6363 16.3964 62.622 16.3964 63.7198V68.1559H14.3511V59.8551H16.24L16.3853 60.8633C16.8212 60.0232 17.7712 59.7207 18.5648 59.7207C19.5483 59.7207 20.5431 60.124 21.0125 61.2666C21.7502 60.0904 22.7002 59.7543 23.7732 59.7543C26.1203 59.7543 27.2715 61.1994 27.2715 63.6862V68.1559H25.2262V63.6862C25.2262 62.5884 24.7791 61.6699 23.6614 61.6699C22.5549 61.6699 21.8731 62.622 21.8731 63.7198V68.1559H19.8501Z" fill="white"/>
<path d="M35.9225 59.8775H37.8896V68.1558H35.9672L35.8666 66.946C35.3972 67.9205 34.1007 68.391 33.1842 68.4022C30.7364 68.4246 28.9258 66.9123 28.9258 63.9998C28.9258 61.1433 30.8147 59.6534 33.2289 59.6646C34.3354 59.6646 35.386 60.1911 35.8554 61.0089L35.9225 59.8775ZM30.96 63.9998C30.96 65.5793 32.0553 66.5203 33.4077 66.5203C36.6266 66.5203 36.6266 61.5018 33.4077 61.5018C32.0553 61.5018 30.96 62.4315 30.96 63.9998Z" fill="white"/>
<path d="M41.6115 56.416V63.2045L44.3946 59.8775H46.8423V59.9895L43.4781 63.7646L47.3117 67.9989V68.1446H44.8528L41.6227 64.4031V68.1446H39.5662V56.416H41.6115Z" fill="white"/>
<path d="M54.8001 59.8775H56.7561V68.1558H54.8337L54.7331 66.946C54.2636 67.9205 52.9671 68.391 52.0506 68.4022C49.6029 68.4246 47.7922 66.9123 47.7922 63.9998C47.7922 61.1433 49.6811 59.6534 52.0953 59.6646C53.2018 59.6646 54.2525 60.1911 54.7219 61.0089L54.8001 59.8775ZM49.8376 63.9998C49.8376 65.5793 50.9329 66.5203 52.2853 66.5203C55.5043 66.5203 55.5043 61.5018 52.2853 61.5018C50.9329 61.5018 49.8376 62.4315 49.8376 63.9998Z" fill="white"/>
<path d="M60.3885 59.8774L60.5338 60.8295C61.1709 59.8101 62.0204 59.6533 62.8586 59.6533C63.7081 59.6533 64.5352 59.9894 64.9822 60.4375L64.0545 62.2186C63.641 61.8713 63.2498 61.6809 62.5792 61.6809C61.5062 61.6809 60.5227 62.2522 60.5227 63.7869V68.1557H58.4773V59.8774H60.3885Z" fill="white"/>
<path d="M68.0001 57.5363C68.0001 59.127 65.5859 59.127 65.5859 57.5363C65.5859 55.9456 68.0001 55.9456 68.0001 57.5363ZM65.7648 59.8439V68.1558H67.8101V59.8439H65.7648Z" fill="white"/>
<path d="M3.01775 78.3608L1.39711 75.9748H0.357659V78.3608H0V72.7598H1.56476C2.17949 72.7598 2.63774 72.9054 2.93951 73.1966C3.24129 73.4879 3.38659 73.88 3.38659 74.3841C3.38659 74.8658 3.25247 75.2354 2.97304 75.5043C2.7048 75.7731 2.30243 75.9299 1.7883 75.9748L3.4313 78.372H3.01775V78.3608ZM0.357659 75.6835H1.54241C2.53715 75.6835 3.02893 75.2466 3.02893 74.3841C3.02893 73.9696 2.90598 73.6447 2.67127 73.4207C2.43655 73.1966 2.05654 73.0846 1.53123 73.0846H0.357659V75.6835Z" fill="#42A8D4"/>
<path d="M7.85742 73.051V75.4034H10.1151V75.6947H7.85742V78.0583H10.361V78.3608H7.49976V72.7598H10.361V73.0622H7.85742V73.051Z" fill="#42A8D4"/>
<path d="M17.4581 76.9044H14.8092L14.2616 78.3607H13.8704L15.9381 72.9053H16.3293L18.3858 78.3607H17.9946L17.4581 76.9044ZM17.3464 76.6132L16.1281 73.3422L14.9098 76.6132H17.3464Z" fill="#42A8D4"/>
<path d="M22.4656 78.0695H24.5556V78.3608H22.1079V72.7598H22.4656V78.0695Z" fill="#42A8D4"/>
<path d="M29.4733 73.051V75.4034H31.7311V75.6947H29.4733V78.0583H31.9658V78.3608H29.1045V72.7598H31.9658V73.0622H29.4733V73.051Z" fill="#42A8D4"/>
<path d="M39.3091 77.666C39.1973 77.8901 39.0185 78.0693 38.7838 78.2037C38.5491 78.3382 38.2473 78.4054 37.8896 78.4054C37.5431 78.4054 37.2414 78.3382 36.9731 78.2037C36.7049 78.0693 36.4925 77.8901 36.3249 77.666C36.1684 77.442 36.079 77.2068 36.0454 76.9379H36.4143C36.4366 77.1059 36.5037 77.2852 36.6155 77.4644C36.7272 77.6436 36.8837 77.8005 37.0961 77.9125C37.3084 78.0357 37.5655 78.0917 37.8784 78.0917C38.2696 78.0917 38.5714 77.9797 38.7838 77.7669C38.9961 77.554 39.0967 77.274 39.0967 76.9603C39.0967 76.6803 39.0297 76.4562 38.8955 76.2882C38.7614 76.1202 38.6049 75.9857 38.4038 75.8961C38.2138 75.8065 37.9455 75.7057 37.6102 75.6049C37.2525 75.504 36.9731 75.392 36.7608 75.3024C36.5484 75.2016 36.3696 75.056 36.2243 74.8543C36.079 74.6527 36.0007 74.3838 36.0007 74.059C36.0007 73.6557 36.146 73.3196 36.4255 73.062C36.7049 72.8043 37.0961 72.6699 37.5878 72.6699C38.0908 72.6699 38.4932 72.7931 38.7838 73.0508C39.0744 73.2972 39.2532 73.5997 39.3314 73.9582H38.9514C38.8955 73.7117 38.7614 73.4877 38.5267 73.2748C38.3032 73.0732 37.9902 72.9724 37.5878 72.9724C37.219 72.9724 36.9284 73.062 36.7161 73.2524C36.4925 73.4429 36.3919 73.7117 36.3919 74.0478C36.3919 74.3166 36.459 74.5295 36.5819 74.6863C36.7049 74.8431 36.8613 74.9775 37.0514 75.056C37.2414 75.1456 37.4984 75.2352 37.8226 75.3248C38.1802 75.4256 38.4708 75.5376 38.6832 75.6385C38.8955 75.7393 39.0855 75.8961 39.2308 76.109C39.3761 76.3218 39.4544 76.5906 39.4544 76.9491C39.4767 77.218 39.4209 77.4532 39.3091 77.666Z" fill="#42A8D4"/>
<path d="M46.7416 72.7485V73.051H45.1322V78.3496H44.7633V73.051H43.165V72.7485H46.7416Z" fill="#42A8D4"/>
<path d="M53.4926 76.9044H50.8436L50.296 78.3607H49.9048L51.9725 72.9053H52.3637L54.4202 78.3607H54.029L53.4926 76.9044ZM53.3808 76.6132L52.1625 73.3422L50.9442 76.6132H53.3808Z" fill="#42A8D4"/>
<path d="M61.1598 72.7485V73.051H59.5504V78.3496H59.1815V73.051H57.5833V72.7485H61.1598Z" fill="#42A8D4"/>
<path d="M65.4963 73.051V75.4034H67.7541V75.6947H65.4963V78.0583H68V78.3608H65.1387V72.7598H68V73.0622H65.4963V73.051Z" fill="#42A8D4"/>
</svg>
