<svg width="14" height="14" viewBox="0 0 14 14" fill="none" xmlns="http://www.w3.org/2000/svg">
<path fill-rule="evenodd" clip-rule="evenodd" d="M2.31374 0.53941V1.07876L1.7481 1.10348C1.25689 1.12492 1.13876 1.15249 0.850405 1.31321C0.489319 1.51449 0.170836 1.91293 0.0639036 2.29728C-0.0213012 2.60333 -0.0213012 12.5203 0.0639036 12.8264C0.171018 13.2113 0.489319 13.6091 0.853083 13.8127L1.18782 14H7H12.8122L13.1469 13.8127C13.5107 13.6091 13.829 13.2113 13.9361 12.8264C14.0213 12.5203 14.0213 2.60333 13.9361 2.29728C13.8292 1.91293 13.5107 1.51449 13.1496 1.31321C12.8612 1.15249 12.7431 1.12492 12.2519 1.10348L11.6863 1.07876V0.53941V0H11.1385H10.5908V0.546638V1.09328H7H3.40923V0.546638V0H2.86148H2.31374V0.53941ZM2.31374 2.73319V3.27983H2.86148H3.40923V2.73319V2.18655H7H10.5908V2.73319V3.27983H11.1385H11.6863V2.73319V2.18655H12.117C12.5118 2.18655 12.5625 2.20131 12.7256 2.36409C12.9034 2.5415 12.9035 2.54223 12.9035 3.30552V4.06941H7H1.09652V3.30552C1.09652 2.54223 1.09665 2.5415 1.27442 2.36409C1.43753 2.20131 1.48816 2.18655 1.88303 2.18655H2.31374V2.73319ZM12.9035 8.87236V12.582L12.7256 12.7596L12.5477 12.9371H7H1.45232L1.27442 12.7596L1.09652 12.582V8.87236V5.16269H7H12.9035V8.87236ZM2.07029 6.86334V7.40998H2.61804H3.16578V6.86334V6.3167H2.61804H2.07029V6.86334ZM4.26127 6.86334V7.40998H4.80902H5.35676V6.86334V6.3167H4.80902H4.26127V6.86334ZM6.45226 6.86334V7.40998H7H7.54775V6.86334V6.3167H7H6.45226V6.86334ZM8.64324 6.86334V7.40998H9.19098H9.73873V6.86334V6.3167H9.19098H8.64324V6.86334ZM10.8342 6.86334V7.40998H11.382H11.9297V6.86334V6.3167H11.382H10.8342V6.86334ZM2.07029 9.04989V9.59653H2.61804H3.16578V9.04989V8.50325H2.61804H2.07029V9.04989ZM4.26127 9.04989V9.59653H4.80902H5.35676V9.04989V8.50325H4.80902H4.26127V9.04989ZM6.45226 9.04989V9.59653H7H7.54775V9.04989V8.50325H7H6.45226V9.04989ZM8.64324 9.04989V9.59653H9.19098H9.73873V9.04989V8.50325H9.19098H8.64324V9.04989ZM10.8342 9.04989V9.59653H11.382H11.9297V9.04989V8.50325H11.382H10.8342V9.04989ZM2.07029 11.2364V11.7831H2.61804H3.16578V11.2364V10.6898H2.61804H2.07029V11.2364ZM4.26127 11.2364V11.7831H4.80902H5.35676V11.2364V10.6898H4.80902H4.26127V11.2364ZM6.45226 11.2364V11.7831H7H7.54775V11.2364V10.6898H7H6.45226V11.2364ZM8.64324 11.2364V11.7831H9.19098H9.73873V11.2364V10.6898H9.19098H8.64324V11.2364Z" fill="#84A6F2"/>
</svg>
