<svg width="42" height="42" viewBox="0 0 42 42" fill="none" xmlns="http://www.w3.org/2000/svg">
<path d="M40.8184 21C40.8184 32.3333 31.8528 41.5 20.8184 41.5C9.78395 41.5 0.818359 32.3333 0.818359 21C0.818359 9.66674 9.78395 0.5 20.8184 0.5C31.8528 0.5 40.8184 9.66674 40.8184 21Z" stroke="#42A8D4"/>
<g clip-path="url(#clip0_97_660)">
<path d="M20.8183 11C23.5151 11 23.8515 11.01 24.9096 11.06C25.9667 11.11 26.6862 11.277 27.3195 11.525C27.9746 11.779 28.5264 12.123 29.0783 12.678C29.583 13.1779 29.9735 13.7826 30.2227 14.45C30.4679 15.087 30.6346 15.813 30.6842 16.878C30.7309 17.944 30.7438 18.283 30.7438 21C30.7438 23.717 30.7339 24.056 30.6842 25.122C30.6346 26.187 30.4679 26.912 30.2227 27.55C29.9742 28.2178 29.5836 28.8226 29.0783 29.322C28.582 29.8303 27.9818 30.2238 27.3195 30.475C26.6872 30.722 25.9667 30.89 24.9096 30.94C23.8515 30.987 23.5151 31 20.8183 31C18.1216 31 17.7851 30.99 16.727 30.94C15.67 30.89 14.9504 30.722 14.3171 30.475C13.6544 30.2245 13.0541 29.8309 12.5583 29.322C12.0535 28.8222 11.663 28.2175 11.4139 27.55C11.1678 26.913 11.002 26.187 10.9524 25.122C10.9057 24.056 10.8928 23.717 10.8928 21C10.8928 18.283 10.9027 17.944 10.9524 16.878C11.002 15.812 11.1678 15.088 11.4139 14.45C11.6623 13.7822 12.0529 13.1773 12.5583 12.678C13.0543 12.1692 13.6545 11.7757 14.3171 11.525C14.9504 11.277 15.669 11.11 16.727 11.06C17.7851 11.013 18.1216 11 20.8183 11ZM20.8183 16C19.5021 16 18.2398 16.5268 17.3091 17.4645C16.3784 18.4021 15.8556 19.6739 15.8556 21C15.8556 22.3261 16.3784 23.5979 17.3091 24.5355C18.2398 25.4732 19.5021 26 20.8183 26C22.1345 26 23.3968 25.4732 24.3275 24.5355C25.2582 23.5979 25.781 22.3261 25.781 21C25.781 19.6739 25.2582 18.4021 24.3275 17.4645C23.3968 16.5268 22.1345 16 20.8183 16ZM27.2699 15.75C27.2699 15.4185 27.1392 15.1005 26.9065 14.8661C26.6738 14.6317 26.3582 14.5 26.0292 14.5C25.7001 14.5 25.3846 14.6317 25.1519 14.8661C24.9192 15.1005 24.7885 15.4185 24.7885 15.75C24.7885 16.0815 24.9192 16.3995 25.1519 16.6339C25.3846 16.8683 25.7001 17 26.0292 17C26.3582 17 26.6738 16.8683 26.9065 16.6339C27.1392 16.3995 27.2699 16.0815 27.2699 15.75ZM20.8183 18C21.608 18 22.3654 18.3161 22.9238 18.8787C23.4822 19.4413 23.7959 20.2044 23.7959 21C23.7959 21.7956 23.4822 22.5587 22.9238 23.1213C22.3654 23.6839 21.608 24 20.8183 24C20.0286 24 19.2712 23.6839 18.7128 23.1213C18.1544 22.5587 17.8407 21.7956 17.8407 21C17.8407 20.2044 18.1544 19.4413 18.7128 18.8787C19.2712 18.3161 20.0286 18 20.8183 18Z" fill="#42A8D4"/>
</g>
<defs>
<clipPath id="clip0_97_660">
<rect width="23.8212" height="24" fill="white" transform="translate(8.90771 9)"/>
</clipPath>
</defs>
</svg>
