<svg width="42" height="42" viewBox="0 0 42 42" fill="none" xmlns="http://www.w3.org/2000/svg">
<path d="M41.1262 21C41.1262 32.3333 32.1606 41.5 21.1262 41.5C10.0918 41.5 1.12622 32.3333 1.12622 21C1.12622 9.66674 10.0918 0.5 21.1262 0.5C32.1606 0.5 41.1262 9.66674 41.1262 21Z" stroke="#42A8D4"/>
<path fill-rule="evenodd" clip-rule="evenodd" d="M11.4519 12.4663C11.3885 12.4949 11.2957 12.5578 11.2458 12.6059C11.0573 12.7875 11.0481 12.8625 11.0481 14.2093C11.0481 15.5138 11.058 15.6075 11.2141 15.7764C11.413 15.9916 11.4326 15.9945 12.7596 16.0084C13.4366 16.0155 14.098 16.0098 14.2294 15.9958C14.5259 15.9642 14.6925 15.8583 14.8077 15.6286C14.892 15.4605 14.8942 15.4243 14.8942 14.2336C14.8942 13.5485 14.8776 12.9529 14.8564 12.8784C14.8064 12.7028 14.6041 12.4972 14.4344 12.4497C14.2135 12.3879 11.5933 12.4024 11.4519 12.4663ZM25.4327 17.6684C24.6804 17.7226 23.8815 17.9372 23.2599 18.2519C22.7482 18.5111 22.0492 19.0423 21.5685 19.5373C21.326 19.787 21.1981 19.8337 21.1263 19.6987C21.1043 19.6573 21.0862 19.3755 21.0857 19.0691C21.0847 18.4357 21.0362 18.2646 20.8122 18.1036L20.6827 18.0105H19.2981H17.9135L17.784 18.1036C17.7128 18.1548 17.6223 18.2681 17.5829 18.3555C17.5141 18.508 17.5113 18.7395 17.5107 24.23C17.5103 27.8642 17.5239 29.9956 17.5479 30.083C17.595 30.2539 17.7991 30.4578 17.9734 30.5082C18.1569 30.5612 20.7804 30.5584 20.9206 30.505C21.0679 30.4489 21.2388 30.2817 21.3028 30.1309C21.3459 30.0294 21.3559 29.5432 21.3563 27.5153C21.3573 23.7754 21.4418 22.8997 21.878 22.1111C22.2533 21.4323 22.9522 20.9104 23.7603 20.7053C24.1423 20.6084 24.8095 20.5986 25.1458 20.6852C25.8685 20.8711 26.4466 21.4203 26.6634 22.1271C26.8508 22.7383 26.8668 23.0578 26.8908 26.6906C26.9078 29.2548 26.925 30.1209 26.9601 30.1825C27.0523 30.3446 27.2719 30.5017 27.4407 30.5264C27.5315 30.5397 28.2128 30.5453 28.9548 30.5388L30.3038 30.5269L30.4458 30.43C30.5238 30.3767 30.6231 30.2599 30.6664 30.1705C30.7446 30.0091 30.7451 29.9768 30.7295 26.0436C30.7161 22.6694 30.7046 22.0159 30.6521 21.6531C30.5644 21.0466 30.5249 20.8602 30.4119 20.5199C30.0096 19.309 29.2026 18.4881 27.9592 18.0252C27.1806 17.7354 26.2763 17.6077 25.4327 17.6684ZM11.4088 18.0462C11.3428 18.0755 11.239 18.1653 11.1781 18.2457L11.0673 18.392L11.0573 24.2042C11.0475 29.9432 11.0483 30.0185 11.1241 30.1748C11.1663 30.2619 11.2647 30.3767 11.3427 30.43L11.4846 30.5269L12.8337 30.5388C13.5756 30.5453 14.2576 30.5397 14.3492 30.5263C14.5596 30.4954 14.7997 30.2869 14.8548 30.0871C14.8804 29.9944 14.8936 27.977 14.8932 24.23C14.8926 18.7395 14.8897 18.508 14.821 18.3555C14.7816 18.2681 14.6911 18.1548 14.6199 18.1036L14.4904 18.0105L13.0096 18.0017C11.8216 17.9946 11.5051 18.0034 11.4088 18.0462Z" fill="#42A8D4"/>
</svg>
