<svg width="87" height="100" viewBox="0 0 87 100" fill="none" xmlns="http://www.w3.org/2000/svg">
<g clip-path="url(#clip0_0_39)">
<path d="M32.7832 65.114C27.7232 65.114 22.6632 65.114 17.6031 65.114C17.6031 64.9997 17.6031 64.8711 17.6031 64.7568C22.6632 64.7568 27.7232 64.7568 32.7975 64.7568C32.7832 64.8711 32.7832 64.9854 32.7832 65.114Z" fill="white"/>
<path d="M32.7547 60.5565C27.6947 60.5565 22.6489 60.5565 17.5889 60.5565C17.5889 60.4279 17.5889 60.3136 17.5889 60.1851C22.6631 60.1851 27.7232 60.1851 32.7974 60.1851C32.7832 60.2993 32.7689 60.4279 32.7547 60.5565Z" fill="white"/>
<path d="M25.1575 56.0426C31.0536 56.0426 35.8334 55.9403 35.8334 55.814C35.8334 55.6878 31.0536 55.5854 25.1575 55.5854C19.2613 55.5854 14.4816 55.6878 14.4816 55.814C14.4816 55.9403 19.2613 56.0426 25.1575 56.0426Z" fill="white"/>
<path d="M10.8184 38.3423C12.7141 38.3423 11.5881 38.3423 13.4838 38.3423C13.4838 38.4709 13.4981 38.5851 13.4981 38.7137C11.6024 38.7137 12.7284 38.7137 10.8327 38.7137C10.8184 38.5851 10.8184 38.4566 10.8184 38.3423Z" fill="white"/>
<path d="M10.8184 42.228C12.7141 42.228 14.6099 42.228 16.4913 42.228C16.4913 42.3566 16.5056 42.4709 16.5056 42.5995C14.6099 42.5995 12.7141 42.5995 10.8184 42.5995C10.8184 42.4709 10.8184 42.3566 10.8184 42.228Z" fill="white"/>
<path d="M10.8184 46.1138C12.7141 46.1138 14.6099 46.1138 16.4913 46.1138C16.4913 46.2423 16.5056 46.3566 16.5056 46.4852C14.6099 46.4852 12.7141 46.4852 10.8184 46.4852C10.8184 46.3709 10.8184 46.2423 10.8184 46.1138Z" fill="white"/>
<path d="M10.8184 34.4424C12.7141 34.4424 14.6099 34.4424 16.4913 34.4424C16.4913 34.571 16.5056 34.6852 16.5056 34.8138C14.6099 34.8138 12.7141 34.8138 10.8184 34.8138C10.8184 34.6995 10.8184 34.571 10.8184 34.4424Z" fill="white"/>
<path d="M10.8184 30.5566C12.7141 30.5566 14.6099 30.5566 16.4913 30.5566C16.4913 30.6852 16.5056 30.7995 16.5056 30.9281C14.6099 30.9281 12.7141 30.9281 10.8184 30.9281C10.8184 30.7995 10.8184 30.6852 10.8184 30.5566Z" fill="white"/>
<path d="M13.4553 26.6567C15.351 26.6567 14.5956 26.6567 16.4913 26.6567C16.4913 26.7853 16.5056 26.8996 16.5056 27.0282C14.6099 27.0282 15.351 27.0282 13.4696 27.0282C13.4553 26.9139 13.4553 26.7853 13.4553 26.6567Z" fill="white"/>
<path d="M10.8184 22.771C12.7141 22.771 14.6099 22.771 16.4913 22.771C16.4913 22.8996 16.5056 23.0139 16.5056 23.1424C14.6099 23.1424 12.7141 23.1424 10.8184 23.1424C10.8184 23.0139 10.8184 22.8996 10.8184 22.771Z" fill="white"/>
<path d="M23.5184 31.9282H20.8815V34.5711H23.5184V31.9282Z" fill="white"/>
<path d="M27.5806 31.9282H24.9437V34.5711H27.5806V31.9282Z" fill="white"/>
<path d="M23.5184 35.5425H20.8815V38.1853H23.5184V35.5425Z" fill="white"/>
<path d="M27.5806 35.5425H24.9437V38.1853H27.5806V35.5425Z" fill="white"/>
<path d="M23.5184 39.1709H20.8815V41.8138H23.5184V39.1709Z" fill="white"/>
<path d="M27.5806 39.1709H24.9437V41.8138H27.5806V39.1709Z" fill="white"/>
<path d="M23.5184 42.7998H20.8815V45.4427H23.5184V42.7998Z" fill="white"/>
<path d="M27.5806 42.7998H24.9437V45.4427H27.5806V42.7998Z" fill="white"/>
<path d="M9.4216 67.3283C9.4216 67.1854 9.4216 67.0426 9.4216 66.8997L9.33607 17.7426C10.9467 17.3426 12.6144 16.9854 14.111 16.1283C15.6362 15.2569 16.7907 13.9854 18.0878 12.4283V49.8997L12.9565 51.6426C12.9565 56.8854 12.9565 62.0997 12.9565 67.314H14.3533V52.514L35.976 46.9283L35.9903 49.5426C35.9903 49.5426 36.0045 61.2569 36.033 67.1283C36.033 67.1997 36.033 67.2569 36.033 67.3283H37.3443V45.1711C34.9355 45.6569 33.1823 46.0283 30.6594 46.5569V29.9854C36.1043 37.414 41.2641 44.4569 46.3384 51.3997H48.6902C54.9475 43.0711 61.6895 34.9283 67.9325 26.614V67.3426H79.0788V9.35685H66.2506C60.1358 17.7711 54.0353 26.1997 47.778 34.8283C41.4351 26.1426 35.2776 17.714 29.0345 9.17114H19.955C19.9407 5.92828 19.9692 3.65685 19.6699 0.642567C19.5844 -0.257433 18.2446 -0.20029 18.2446 0.713995C18.2446 0.728281 18.2446 0.742567 18.2446 0.742567C18.2161 2.414 18.1875 4.08542 18.2161 5.75685C18.3158 11.2283 14.9092 15.114 9.52137 16.0711C8.92272 16.1569 8.80869 16.1854 7.8252 16.3854V67.3283H9.4216ZM68.0038 26.6283C68.018 26.6283 68.018 26.6283 68.0038 26.6283V26.6283ZM67.9753 26.6283H67.9895C67.9895 26.6283 67.9895 26.6283 67.9753 26.6283ZM19.898 31.314C22.6774 29.7569 25.5851 28.1711 28.8207 26.414C28.8207 33.4426 28.8207 40.2569 28.8207 47.214L19.898 49.5711C19.898 43.414 19.898 37.4711 19.898 31.314Z" fill="#42A8D4"/>
<path d="M13.0135 76.0567L8.13879 82.571H7.5829L2.82221 76.0424V86.9424H0V71.9424H3.24981L7.92499 78.3852L12.6002 71.9424H15.8215V86.9424H13.0135V76.0567Z" fill="white"/>
<path d="M25.3143 86.9139V81.2567C25.3143 79.871 24.5874 78.5996 23.162 78.5996C21.7509 78.5996 20.91 79.8567 20.91 81.2567V86.9139H18.3016V76.3282H20.7104L20.8957 77.6139C21.4516 76.5425 22.6632 76.1567 23.6752 76.1567C24.9295 76.1567 26.1981 76.671 26.7967 78.1282C27.7374 76.6282 28.949 76.1996 30.3173 76.1996C33.3106 76.1996 34.7787 78.0425 34.7787 81.2139V86.9139H32.1703V81.2139C32.1703 79.8139 31.6002 78.6425 30.1748 78.6425C28.7637 78.6425 27.8942 79.8567 27.8942 81.2567V86.9139H25.3143Z" fill="white"/>
<path d="M45.811 76.357H48.3196V86.9141H45.868L45.7397 85.3712C45.1411 86.6141 43.4877 87.2141 42.3189 87.2284C39.1973 87.257 36.8882 85.3284 36.8882 81.6141C36.8882 77.9712 39.2971 76.0712 42.3759 76.0855C43.787 76.0855 45.1268 76.757 45.7255 77.7998L45.811 76.357ZM39.4824 81.6141C39.4824 83.6284 40.8792 84.8284 42.6039 84.8284C46.709 84.8284 46.709 78.4284 42.6039 78.4284C40.8792 78.4284 39.4824 79.6141 39.4824 81.6141Z" fill="white"/>
<path d="M53.066 71.9424V80.5995L56.6152 76.3567H59.7367V76.4995L55.4464 81.3138L60.3354 86.7138V86.8995H57.1996L53.0803 82.1281V86.8995H50.4576V71.9424H53.066Z" fill="white"/>
<path d="M69.8853 76.357H72.3797V86.9141H69.9281L69.7998 85.3712C69.2011 86.6141 67.5477 87.2141 66.3789 87.2284C63.2574 87.257 60.9483 85.3284 60.9483 81.6141C60.9483 77.9712 63.3572 76.0712 66.4359 76.0855C67.847 76.0855 69.1869 76.757 69.7855 77.7998L69.8853 76.357ZM63.5567 81.6141C63.5567 83.6284 64.9536 84.8284 66.6782 84.8284C70.7833 84.8284 70.7833 78.4284 66.6782 78.4284C64.9536 78.4284 63.5567 79.6141 63.5567 81.6141Z" fill="white"/>
<path d="M77.0121 76.3565L77.1974 77.5708C78.0098 76.2708 79.0931 76.0708 80.1621 76.0708C81.2454 76.0708 82.3001 76.4994 82.8703 77.0708L81.6872 79.3422C81.1599 78.8994 80.661 78.6565 79.8058 78.6565C78.4374 78.6565 77.1831 79.3851 77.1831 81.3422V86.9137H74.5747V76.3565H77.0121Z" fill="white"/>
<path d="M86.7187 73.371C86.7187 75.3996 83.64 75.3996 83.64 73.371C83.64 71.3425 86.7187 71.3425 86.7187 73.371ZM83.868 76.3139V86.9139H86.4764V76.3139H83.868Z" fill="white"/>
<path d="M3.84847 99.9285L1.7817 96.8856H0.456114V99.9285H0V92.7856H1.9955C2.77945 92.7856 3.36384 92.9714 3.74869 93.3428C4.13354 93.7142 4.31883 94.2142 4.31883 94.8571C4.31883 95.4714 4.14779 95.9428 3.79145 96.2856C3.44937 96.6285 2.93624 96.8285 2.28057 96.8856L4.37585 99.9428H3.84847V99.9285ZM0.456114 96.5142H1.96699C3.23556 96.5142 3.86272 95.9571 3.86272 94.8571C3.86272 94.3285 3.70593 93.9142 3.4066 93.6285C3.10728 93.3428 2.62266 93.1999 1.95274 93.1999H0.456114V96.5142Z" fill="#42A8D4"/>
<path d="M10.0203 93.1571V96.1571H12.8995V96.5285H10.0203V99.5428H13.2131V99.9285H9.56415V92.7856H13.2131V93.1714H10.0203V93.1571Z" fill="#42A8D4"/>
<path d="M22.2641 98.0712H18.886L18.1875 99.9283H17.6887L20.3256 92.9712H20.8244L23.4471 99.9283H22.9482L22.2641 98.0712ZM22.1215 97.6998L20.5679 93.5283L19.0142 97.6998H22.1215Z" fill="#42A8D4"/>
<path d="M28.6497 99.5571H31.3151V99.9285H28.1935V92.7856H28.6497V99.5571Z" fill="#42A8D4"/>
<path d="M37.5867 93.1571V96.1571H40.4659V96.5285H37.5867V99.5428H40.7652V99.9285H37.1163V92.7856H40.7652V93.1714H37.5867V93.1571Z" fill="#42A8D4"/>
<path d="M50.1298 99.0428C49.9873 99.3285 49.7592 99.5571 49.4599 99.7285C49.1606 99.9 48.7757 99.9857 48.3196 99.9857C47.8778 99.9857 47.4929 99.9 47.1508 99.7285C46.8087 99.5571 46.5379 99.3285 46.3241 99.0428C46.1246 98.7571 46.0105 98.4571 45.9678 98.1142H46.4381C46.4667 98.3285 46.5522 98.5571 46.6947 98.7857C46.8372 99.0142 47.0368 99.2142 47.3076 99.3571C47.5784 99.5142 47.9063 99.5857 48.3054 99.5857C48.8042 99.5857 49.1891 99.4428 49.4599 99.1714C49.7307 98.9 49.859 98.5428 49.859 98.1428C49.859 97.7857 49.7735 97.5 49.6024 97.2857C49.4314 97.0714 49.2318 96.9 48.9753 96.7857C48.733 96.6714 48.3909 96.5428 47.9633 96.4142C47.5072 96.2857 47.1508 96.1428 46.88 96.0285C46.6092 95.9 46.3811 95.7142 46.1958 95.4571C46.0105 95.2 45.9108 94.8571 45.9108 94.4428C45.9108 93.9285 46.0961 93.5 46.4524 93.1714C46.8087 92.8428 47.3076 92.6714 47.9348 92.6714C48.5762 92.6714 49.0893 92.8285 49.4599 93.1571C49.8305 93.4714 50.0586 93.8571 50.1583 94.3142H49.6737C49.6024 94 49.4314 93.7142 49.1321 93.4428C48.847 93.1857 48.4479 93.0571 47.9348 93.0571C47.4644 93.0571 47.0938 93.1714 46.823 93.4142C46.5379 93.6571 46.4096 94 46.4096 94.4285C46.4096 94.7714 46.4952 95.0428 46.6519 95.2428C46.8087 95.4428 47.0083 95.6142 47.2506 95.7142C47.4929 95.8285 47.8207 95.9428 48.2341 96.0571C48.6902 96.1857 49.0608 96.3285 49.3316 96.4571C49.6024 96.5857 49.8448 96.7857 50.03 97.0571C50.2153 97.3285 50.3151 97.6714 50.3151 98.1285C50.3436 98.4714 50.2724 98.7714 50.1298 99.0428Z" fill="#42A8D4"/>
<path d="M59.6084 92.7715V93.1572H57.5559V99.9143H57.0856V93.1572H55.0473V92.7715H59.6084Z" fill="#42A8D4"/>
<path d="M68.2176 98.0712H64.8395L64.1411 99.9283H63.6422L66.2791 92.9712H66.778L69.4007 99.9283H68.9018L68.2176 98.0712ZM68.0751 97.6998L66.5214 93.5283L64.9678 97.6998H68.0751Z" fill="#42A8D4"/>
<path d="M77.9956 92.7715V93.1572H75.9431V99.9143H75.4727V93.1572H73.4344V92.7715H77.9956Z" fill="#42A8D4"/>
<path d="M83.5259 93.1571V96.1571H86.4052V96.5285H83.5259V99.5428H86.7187V99.9285H83.0698V92.7856H86.7187V93.1714H83.5259V93.1571Z" fill="#42A8D4"/>
</g>
<defs>
<clipPath id="clip0_0_39">
<rect width="86.7188" height="100" fill="white"/>
</clipPath>
</defs>
</svg>
