<svg width="24" height="25" viewBox="0 0 24 25" fill="none" xmlns="http://www.w3.org/2000/svg">
<g clip-path="url(#clip0_0_95)">
<path d="M18.031 17.117L22.314 21.399L20.899 22.814L16.617 18.531C15.0237 19.8082 13.042 20.5029 11 20.5C6.032 20.5 2 16.468 2 11.5C2 6.532 6.032 2.5 11 2.5C15.968 2.5 20 6.532 20 11.5C20.0029 13.542 19.3082 15.5237 18.031 17.117ZM16.025 16.375C17.2941 15.0699 18.0029 13.3204 18 11.5C18 7.632 14.867 4.5 11 4.5C7.132 4.5 4 7.632 4 11.5C4 15.367 7.132 18.5 11 18.5C12.8204 18.5029 14.5699 17.7941 15.875 16.525L16.025 16.375Z" fill="#021540"/>
</g>
<defs>
<clipPath id="clip0_0_95">
<rect width="24" height="24" fill="white" transform="translate(0 0.5)"/>
</clipPath>
</defs>
</svg>
