<svg width="41" height="42" viewBox="0 0 41 42" fill="none" xmlns="http://www.w3.org/2000/svg">
<path d="M40.5 21C40.5 32.3333 31.5344 41.5 20.5 41.5C9.4656 41.5 0.5 32.3333 0.5 21C0.5 9.66674 9.4656 0.5 20.5 0.5C31.5344 0.5 40.5 9.66674 40.5 21Z" stroke="#42A8D4"/>
<path d="M30.9279 15.0137C30.3451 15.8806 29.6301 16.6195 28.7829 17.2305C28.7913 17.3944 28.7955 17.5797 28.7955 17.7862C28.7955 18.934 28.6281 20.0831 28.2935 21.2337C27.9588 22.3842 27.4476 23.4855 26.7598 24.5375C26.072 25.5895 25.2528 26.5215 24.3021 27.3335C23.3513 28.1454 22.2085 28.7928 20.8735 29.2757C19.5386 29.7586 18.1079 30 16.5815 30C14.1992 30 12.0054 29.3569 10 28.0706C10.3559 28.1102 10.6973 28.13 11.0241 28.13C13.0143 28.13 14.7919 27.517 16.3568 26.291C15.4288 26.274 14.5978 25.9884 13.8637 25.4341C13.1295 24.8798 12.6243 24.1715 12.348 23.3093C12.6211 23.3613 12.8907 23.3873 13.1566 23.3873C13.5395 23.3873 13.9162 23.3374 14.2868 23.2375C13.2966 23.0392 12.475 22.5459 11.8223 21.7578C11.1695 20.9697 10.8431 20.0601 10.8431 19.0289V18.9758C11.451 19.3124 12.0993 19.4914 12.7882 19.5129C12.2016 19.1218 11.7365 18.6118 11.3929 17.9829C11.0493 17.354 10.8775 16.6734 10.8775 15.9412C10.8775 15.1689 11.071 14.4497 11.458 13.7837C12.5349 15.1053 13.8398 16.1615 15.3727 16.9524C16.9057 17.7433 18.5502 18.1825 20.3063 18.2701C20.2314 17.958 20.1939 17.6322 20.1938 17.2929C20.1938 16.108 20.6131 15.0963 21.4517 14.2578C22.2903 13.4193 23.302 13 24.4869 13C25.7274 13 26.7723 13.4517 27.6215 14.3551C28.5919 14.1629 29.5004 13.8152 30.3472 13.3122C30.021 14.3388 29.3923 15.1309 28.4613 15.6882C29.317 15.5865 30.1392 15.3617 30.9278 15.0137H30.9279Z" fill="#42A8D4"/>
</svg>
