<svg width="41" height="42" viewBox="0 0 41 42" fill="none" xmlns="http://www.w3.org/2000/svg">
<path d="M40.5 21C40.5 32.3333 31.5344 41.5 20.5 41.5C9.4656 41.5 0.5 32.3333 0.5 21C0.5 9.66674 9.4656 0.5 20.5 0.5C31.5344 0.5 40.5 9.66674 40.5 21Z" stroke="#42A8D4"/>
<path d="M29.5576 16.1869C29.4439 15.7635 29.221 15.3773 28.9111 15.067C28.6013 14.7568 28.2154 14.5333 27.792 14.4191C26.2338 14 19.9873 14 19.9873 14C19.9873 14 13.7408 14 12.1825 14.4169C11.759 14.5307 11.3729 14.7541 11.0629 15.0644C10.753 15.3747 10.5302 15.761 10.4169 16.1847C10 17.7452 10 21 10 21C10 21 10 24.2548 10.4169 25.8131C10.6465 26.6736 11.3242 27.3513 12.1825 27.5809C13.7408 28 19.9873 28 19.9873 28C19.9873 28 26.2338 28 27.792 27.5809C28.6525 27.3513 29.328 26.6736 29.5576 25.8131C29.9745 24.2548 29.9745 21 29.9745 21C29.9745 21 29.9745 17.7452 29.5576 16.1869ZM18.0032 23.9873V18.0127L23.1752 20.9777L18.0032 23.9873Z" fill="#42A8D4"/>
</svg>
